<?xml version="1.0" standalone="no"?>
<!DOCTYPE svg PUBLIC "-//W3C//DTD SVG 1.1//EN" "http://www.w3.org/Graphics/SVG/1.1/DTD/svg11.dtd" >
<svg xmlns="http://www.w3.org/2000/svg">
<metadata>
This is a custom SVG font generated by IcoMoon.
<iconset grid="16"></iconset>
</metadata>
<defs>
<font id="icomoon" horiz-adv-x="512" >
<font-face units-per-em="512" ascent="480" descent="-32" />
<missing-glyph horiz-adv-x="512" />
<glyph class="hidden" unicode="&#xf000;" d="M0,480L 512 -32L0 -32 z" horiz-adv-x="0" />
<glyph unicode="&#xe000;" d="M 489.813,412.565L 444.565,457.813L 256,269.248L 67.435,457.813L 22.187,412.565L 210.752,224L 22.187,35.435L 67.435-9.813L 256,178.752L 444.565-9.813L 489.813,35.435L 301.248,224 z"  />
<glyph unicode="&#xe001;" d="M 467.328,192L 467.328,256L 46.677,256L 46.677,192 z"  />
<glyph unicode="&#xe002;" d="M 288,416L 224,416L 224,259.115L 120.235,259.115L 256,123.328L 391.765,259.115L 288,259.115 zM 352,141.333L 352,77.333L 160,77.333L 160,141.333L 96,141.333L 96,77.333L 96,13.333L 160,13.333L 352,13.333L 416,13.333L 416,77.333L 416,141.333 z"  />
<glyph unicode="&#xe003;" d="M 224,192L 224,13.675L 288,13.675L 288,192L 467.328,192L 467.328,256L 288,256L 288,434.325L 224,434.325L 224,256L 46.677,256L 46.677,192 z"  />
<glyph unicode="&#xe004;" d="M0,266.667L 512,266.667L 512,181.333L0,181.333zM0,480L 512,480L 512,394.667L0,394.667zM0,53.333L 512,53.333L 512-32L0-32z"  />
<glyph unicode="&#xe005;" d="M 128,416l0-85.333 L 42.667,330.667 l0-298.667 l 320,0 l0,85.333 l 106.667,0 L 469.333,416 L 128,416 z M 320,74.667L 85.333,74.667 l0,170.667 l 42.667,0 l0-64 l0-64 l 64,0 l 128,0 L 320,74.667 z M 426.667,160L 170.667,160 L 170.667,330.667 l 256,0 L 426.667,160 z"  />
<glyph unicode="&#xe006;" d="M 293.973,231.808c 12.651,22.123, 19.861,47.701, 19.861,75.008c0,83.712-67.883,151.595-151.573,151.595c-83.733,0-151.616-67.883-151.616-151.595
	c0-83.733, 67.883-151.595, 151.616-151.595c 31.893,0, 61.483,9.856, 85.909,26.709l 207.147-192.341l 46.059,49.664L 293.973,231.808z M 162.24,218.432
	c-48.832,0-88.384,39.552-88.384,88.384c0,48.811, 39.552,88.384, 88.384,88.384c 48.811,0, 88.405-39.573, 88.405-88.384
	C 250.645,257.984, 211.051,218.432, 162.24,218.432z"  />
<glyph unicode="&#xe007;" d="M 255.808,149.141L 180.245,192.789L 106.837,65.643L 418.624,65.643L 341.845,198.613L 256.171,149.141L 256,149.461 		zM 256,179.861L 512,327.637L 512,364.331L0,364.331L0,327.637 		zM 168.683,199.467L0,296.875L0,65.643L 91.435,65.643 		zM 353.408,205.291L 434.048,65.643L 512,65.643L 512,296.853 		z"  />
<glyph unicode="&#xe008;" d="M 131.776,238.4C 132.267,290.88, 139.712,357.803, 160.939,422.72
	c 7.509,22.933, 57.237,52.629, 80.277,48.32c 7.403-1.344, 7.936-6.635, 9.429-12.224c 9.408-34.901, 1.067-67.84-10.816-100.437
	c-1.259-3.328-3.733-8.043-6.485-8.704c-36.821-9.301-40.021-40.747-44.032-69.547c-5.504-39.659-5.803-80, 1.003-119.552
	c 4.459-25.856, 9.344-51.136, 41.131-62.635c 22.080-7.979, 33.515-96.043, 18.347-114.987c-2.091-2.581-5.781-4.843-9.003-5.419
	c-24.917-4.331-72.939,26.432-80.832,51.157C 139.84,91.925, 131.755,156.821, 131.776,238.4zM 318.485,23.552c-2.219-16.981, 1.344-40.576-26.816-46.656
	c-14.421-3.115-25.664-0.384-21.248,18.389c 7.083,29.952, 2.197,58.731-8.619,86.571c-8.832,22.763, 5.547,19.605, 18.048,16.789
	C 305.301,92.928, 318.379,67.84, 318.485,23.552zM 315.669,427.221c-1.557-32.491-1.664-59.605-29.568-75.029
	C 278.251,347.883, 268.544,345.6, 261.653,349.653c-10.069,5.888-1.835,14.997, 0.619,22.4c 8.213,24.683, 8.832,49.899, 7.723,75.605
	c-0.384,8.192-9.557,22.528, 8.555,24.277c 13.995,1.344, 27.392-2.304, 32.448-17.024C 314.603,444.395, 314.816,432.704, 315.669,427.221z"  />
<glyph unicode="&#xe009;" d="M 174.72,242.027c 0.853,31.381-16.32,31.68-33.877,32
	C 121.92,274.347, 107.285,269.483, 108.416,242.347c 1.024-24.704, 16.448-25.195, 31.765-25.259C 157.035,217.024, 175.445,215.083, 174.72,242.027z M 255.957,217.024
	c 16.427-0.469, 30.144,2.069, 30.507,26.88c 0.427,28.587-15.808,30.4-33.941,30.251c-18.133-0.149-34.987-2.24-33.621-30.699
	C 220.309,214.229, 239.296,217.621, 255.957,217.024z M 367.851,217.237c 9.195,2.411, 29.76-6.272, 31.445,24.64
	c 1.408,27.413-12.544,33.152-31.787,32.043c-16.192-0.917-35.691,4.181-37.781-25.237C 327.701,220.992, 342.869,216.341, 367.851,217.237z
	 M 174.699,156.373c-0.277,29.717-19.093,27.243-35.989,27.669c-16.384,0.427-30.4-2.667-30.549-27.328c-0.235-33.408, 20.224-30.869, 39.296-31.083
	C 165.333,125.419, 176.683,133.035, 174.699,156.373z M 218.603,155.797c-1.301-27.989, 14.976-30.251, 32.875-30.037c 17.067,0.213, 34.283-0.448, 35.051,27.925
	c 0.747,27.755-14.763,30.699-32.853,30.549C 236.437,184.043, 219.243,183.573, 218.603,155.797z M 367.765,184.043
	c-17.899-1.088-38.891,3.371-38.357-30.037c 0.448-27.989, 17.387-28.501, 34.517-28.501c 16.747,0, 33.984-0.96, 35.349,27.328
	C 400.576,180.075, 386.859,185.173, 367.765,184.043z M 174.699,64.875c-0.427,28.757-17.792,28.416-35.563,28.245c-16.64-0.171-30.507-3.925-30.848-27.712
	c-0.448-32.619, 19.776-31.381, 39.147-31.659C 165.717,33.536, 176.085,42.219, 174.699,64.875z M 286.528,59.051
	c-0.576,32.96-16.853,34.667-34.453,34.091c-17.387-0.619-34.432-2.539-33.323-30.165c 1.045-26.048, 16.896-29.419, 34.859-29.163
	C 271.659,34.048, 287.232,37.589, 286.528,59.051z M 399.019,62.123c 2.112,27.541-13.184,31.829-31.552,31.424
	c-16.427-0.427-35.136,2.24-37.781-24.96c-2.453-24.619, 9.536-35.093, 29.461-34.667C 376.96,34.325, 397.995,29.717, 399.019,62.123zM 269.76,433.003c 55.552-0.533, 126.379-8.405, 195.051-30.848
	c 24.277-7.936, 37.504-60.565, 32.96-84.928c-1.408-7.829-6.997-8.384-12.928-9.963c-36.907-9.984-71.787-1.131-106.219,11.435
	c-3.563,1.301-8.512,3.925-9.28,6.848c-9.813,38.933-3.605,42.347-34.069,46.592c-41.963,5.824-127.296,6.123-169.173-1.088
	C 138.773,366.315, 151.531,361.173, 139.349,327.531C 130.923,304.171, 37.76,292.053, 17.707,308.117C 14.976,310.315, 12.587,314.219, 11.989,317.675
	c-4.587,26.325, 9.813,77.141, 35.947,85.483C 114.795,424.469, 183.445,433.045, 269.76,433.003z"  />
<glyph unicode="&#xe00a;" d="M 479.147,95.765L 428.352,44.971L 373.568-9.813L 11.52,352.213L 117.12,457.813 zM 490.667-16.661L 373.568-9.813L 384,96L 479.147,95.765 z"  />
<glyph unicode="&#xe00b;" d="M 459.264,405.013L 188.075,133.824L 52.736,269.184L 7.488,223.936L 142.827,88.576L 187.733,42.987L 504.512,359.765 z"  />
<glyph unicode="&#xe00c;" d="M 511.979-32L0-32L0,480.021 z"  />
<glyph unicode="&#xe00d;" d="M 512,480L 512-32L-0.021-32 z"  />
<glyph unicode="&#xe00e;" d="M0-32L0,480L 512,480 z"  />
<glyph unicode="&#xe00f;" d="M0,480L 512,480L 512-32 z"  />
<glyph unicode="&#xe010;" d="M 255.659-32.043L 256.299-30.72L 256.917-32L 511.851,479.936L 0.725,480 z"  />
<glyph unicode="&#xe011;" d="M 0.277,224.597L 1.579,223.957L 0.32,223.36L 512.256-31.573L 512.32,479.552 z"  />
<glyph unicode="&#xe012;" d="M 512.32,223.36L 510.997,224L 512.277,224.597L 0.341,479.552L 0.277-31.573 z"  />
<glyph unicode="&#xe013;" d="M 256.939,480.021L 256.299,478.72L 255.68,479.979L 0.747-31.957L 511.872-32.021 z"  />
<glyph unicode="&#xe014;" d="M 255.808,96L 256.448,96.619L 257.067,96.021L 512,330.624L 0.875,330.667 z"  />
<glyph unicode="&#xe015;" d="M 256.939,352.021L 256.299,351.424L 255.68,352L 0.747,117.376L 511.872,117.355 z"  />
<glyph unicode="&#xe016;" d="M 19.328,224.576L 19.968,223.936L 19.349,223.339L 270.187-26.283L 270.208,474.219 z" horiz-adv-x="341.333"  />
<glyph unicode="&#xe017;" d="M 270.208,223.381L 269.589,224L 270.187,224.555L 19.349,474.219L 19.328-26.283 z" horiz-adv-x="341.333"  />
<glyph unicode="&#xe018;" d="M 257.685,70.293L 258.325,70.912L 258.923,70.315L 508.523,321.152L 452.053,377.643L 258.304,183.872L 64.512,377.643L 8.043,321.173 z"  />
<glyph unicode="&#xe019;" d="M 19.307,224.555L 19.925,223.915L 19.328,223.317L 270.165-26.304L 326.656,30.165L 132.885,223.936L 326.656,417.728L 270.187,474.197 z" horiz-adv-x="341.333"  />
<glyph unicode="&#xe01a;" d="M 326.656,223.317L 326.016,223.957L 326.635,224.555L 75.776,474.197L 19.307,417.728L 213.056,223.957L 19.307,30.144L 75.776-26.304 z" horiz-adv-x="341.333"  />
<glyph unicode="&#xe01b;" d="M 258.923,377.643L 258.283,377.003L 257.685,377.6L 8.064,126.763L 64.533,70.272L 258.304,264.043L 452.075,70.272L 508.565,126.741 z"  />
<glyph unicode="&#x20;" horiz-adv-x="256" />
</font>
</defs>
</svg>
